<?xml version="1.0" encoding="utf-8"?>
<!-- Generator: Adobe Illustrator 15.0.0, SVG Export Plug-In . SVG Version: 6.00 Build 0)  -->
<!DOCTYPE svg PUBLIC "-//W3C//DTD SVG 1.1//EN" "http://www.w3.org/Graphics/SVG/1.1/DTD/svg11.dtd">
<svg version="1.1" id="Capa_1" xmlns="http://www.w3.org/2000/svg" xmlns:xlink="http://www.w3.org/1999/xlink" x="0px" y="0px"
	 width="158.318px" height="63.768px" viewBox="0 0 158.318 63.768" enable-background="new 0 0 158.318 63.768"
	 xml:space="preserve">
<g>
	<path d="M124.951,37.244L124.951,37.244c-0.351,0-0.861-0.075-1.377-0.235c-0.536-0.344-0.891-0.612-1.129-0.86l-8.63-8.621
		c-0.771-0.599-1.047-1.572-1.047-2.698c0-0.938,0.274-1.914,1.047-2.614c0.707-0.778,1.646-1.021,2.781-1.021
		c0.972,0,1.835,0.242,2.614,1.021l5.741,5.932L144.518,8.66c0.7-0.7,1.562-1.052,2.695-1.052c0.942,0,1.911,0.352,2.611,1.052
		c0.792,0.61,1.047,1.747,1.047,2.688c0,0.976-0.255,1.924-1.047,2.535l-22.097,22.264c-0.429,0.248-0.785,0.518-1.211,0.86
		C126.001,37.168,125.461,37.244,124.951,37.244L124.951,37.244z"/>
	<g>
		<path fill="#F5F5F5" d="M23.736,38.356v-3.792h2.506l-1.845-5.185h-7.933l-2.192,6.367v2.608H7.104v-3.792h3.307l6.854-19.729
			l0.766-2.332h8.595v3.793h-2.505l6.437,18.268h3.236v3.792L23.736,38.356L23.736,38.356z M20.466,17.792l-2.679,7.794h5.323
			L20.466,17.792z"/>
		<path fill="#F5F5F5" d="M49.519,38.356l-5.323-11.795h-3.375v11.83h-4.176V16.296h-3.479v-3.793H45.9
			c1.044,0,2.013,0.15,2.906,0.453c0.894,0.302,1.699,0.776,2.418,1.426c1.461,1.3,2.192,2.936,2.192,4.906
			c0,0.882-0.128,1.711-0.383,2.487c-0.257,0.777-0.65,1.479-1.184,2.104c-0.417,0.511-0.917,0.938-1.496,1.288
			c-0.58,0.348-1.218,0.638-1.914,0.869l3.897,8.524h3.41v3.792h-6.229V38.356z M48.301,17.202
			c-0.325-0.279-0.713-0.499-1.166-0.661c-0.452-0.162-1.003-0.244-1.653-0.244H40.82v6.472h4.036c0.813,0,1.49-0.081,2.035-0.243
			c0.545-0.161,0.992-0.383,1.34-0.66c0.325-0.256,0.574-0.574,0.748-0.957c0.174-0.384,0.262-0.864,0.262-1.444
			C49.241,18.49,48.928,17.735,48.301,17.202z"/>
		<path fill="#F5F5F5" d="M79.373,38.356v-2.679V20.298l-7.411,18.058h-1.879l-7.308-18.093v14.301h2.818v3.792h-6.681v-2.679
			V16.296h-3.063v-3.793h7.898l7.445,17.989l7.376-17.989h7.934v3.793h-2.958v18.268h2.958v3.792H79.373z"/>
		<path fill="#F5F5F5" d="M104.007,38.356v-3.792h2.505l-1.844-5.185h-7.934l-2.191,6.367v2.608h-7.167v-3.792h3.305l6.855-19.729
			l0.765-2.332h8.594v3.793h-2.505l6.438,18.268h3.235v3.792L104.007,38.356L104.007,38.356z M100.041,11.947h-3.933l4.941-7.619
			h4.836L100.041,11.947z M100.736,17.792l-2.679,7.794h5.324L100.736,17.792z"/>
		<path d="M20.417,45.708v-2.202h-3.267v15.688H11.88v-2.696h2.301v-12.99h-3.266v4.182H8.194V40.81H23.14v4.899L20.417,45.708
			L20.417,45.708z"/>
		<path d="M39.47,43.506v9.873c0,0.939-0.14,1.785-0.42,2.536c-0.281,0.751-0.718,1.405-1.313,1.967
			c-0.594,0.528-1.295,0.92-2.103,1.176c-0.809,0.255-1.708,0.383-2.697,0.383c-0.988,0-1.889-0.123-2.696-0.371
			c-0.809-0.246-1.51-0.643-2.104-1.188c-0.61-0.544-1.056-1.195-1.336-1.955c-0.28-0.758-0.42-1.607-0.42-2.548v-9.873h-2.153
			v-2.697h7.25v2.697H29.35v10.021c0,0.562,0.074,1.026,0.224,1.397c0.148,0.371,0.362,0.673,0.644,0.903
			c0.28,0.265,0.643,0.467,1.088,0.605c0.445,0.142,0.981,0.21,1.608,0.21c0.676,0,1.232-0.068,1.67-0.21
			c0.437-0.14,0.795-0.325,1.076-0.557c0.264-0.231,0.47-0.528,0.618-0.892c0.148-0.362,0.224-0.833,0.224-1.41v-10.86v-1.905h5.122
			v2.697H39.47z"/>
		<path d="M51.124,59.194v-1.904V43.506h-2.152v-2.697h15.021v5.666h-2.697v-2.969h-7.201v4.948h6.978v2.696h-6.978v5.346h7.993
			h1.93v2.696L51.124,59.194L51.124,59.194z"/>
		<path d="M81.138,43.506l-5.814,15.86h-2.252l-6.013-15.86h-2.425v-2.697h4.577l0.544,1.633l4.528,11.878l3.983-10.813h-1.708
			V40.81h7.002v2.697L81.138,43.506L81.138,43.506z"/>
		<path d="M87.077,59.194v-1.904V43.506h-2.152v-2.697h15.02v5.666h-2.696v-2.969h-7.201v4.948h6.978v2.696h-6.978v5.346h7.993h1.93
			v2.696L87.077,59.194L87.077,59.194z"/>
		<path d="M117.809,43.506v15.91h-2.523l-8.908-13.634v10.714h2.375v2.696h-5.122v-1.904V43.506h-2.252v-2.697h5.196
			c0.924,1.484,1.798,2.858,2.623,4.12c0.824,1.262,1.641,2.503,2.448,3.724c1.14,1.684,2.277,3.415,3.415,5.196V42.714v-1.905
			h4.924v2.697H117.809z"/>
		<path d="M134.04,45.708v-2.202h-3.267v15.688h-5.271v-2.696h2.301v-12.99h-3.266v4.182h-2.723V40.81h14.945v4.899L134.04,45.708
			L134.04,45.708z"/>
		<path d="M152.698,56.745c-1.749,1.798-3.959,2.695-6.632,2.695c-2.672,0-4.883-0.897-6.631-2.695
			c-1.749-1.799-2.623-4.051-2.623-6.756s0.874-4.956,2.623-6.756c1.748-1.798,3.959-2.696,6.631-2.696
			c2.673,0,4.884,0.898,6.632,2.696c1.747,1.8,2.622,4.051,2.622,6.756C155.319,52.695,154.445,54.947,152.698,56.745z
			 M150.569,45.189c-1.171-1.236-2.672-1.854-4.503-1.854c-1.814,0-3.315,0.627-4.503,1.88c-1.188,1.237-1.781,2.829-1.781,4.775
			s0.594,3.538,1.781,4.775c1.188,1.254,2.688,1.88,4.503,1.88c1.831,0,3.332-0.618,4.503-1.854
			c1.188-1.254,1.781-2.854,1.781-4.801C152.35,48.059,151.756,46.459,150.569,45.189z"/>
	</g>
</g>
</svg>
