<?xml version="1.0" encoding="utf-8"?>
<!-- Generator: Adobe Illustrator 15.0.0, SVG Export Plug-In . SVG Version: 6.00 Build 0)  -->
<!DOCTYPE svg PUBLIC "-//W3C//DTD SVG 1.1//EN" "http://www.w3.org/Graphics/SVG/1.1/DTD/svg11.dtd">
<svg version="1.1" id="Capa_1" xmlns="http://www.w3.org/2000/svg" xmlns:xlink="http://www.w3.org/1999/xlink" x="0px" y="0px"
	 width="111.668px" height="110.542px" viewBox="0 0 111.668 110.542" enable-background="new 0 0 111.668 110.542"
	 xml:space="preserve">
<rect x="30.834" y="44.938" width="46.334" height="34"/>
<path d="M68.523,37.515c2.105,0,3.808-1.694,3.808-3.798v-3.978c0-2.11-1.701-3.807-3.808-3.807c-2.101,0-3.803,1.697-3.803,3.807
	v3.979C64.727,35.821,66.424,37.515,68.523,37.515"/>
<path fill="#FFFFFF" d="M82.047,32.523h-7.663v1.929c0,3.197-2.599,5.798-5.794,5.798c-3.201,0-5.794-2.601-5.794-5.798v-1.929
	H47.348v1.929c0,3.197-2.602,5.798-5.795,5.798c-3.203,0-5.792-2.601-5.792-5.798v-1.929l-7.729-0.103v48.375l3.866,0.002h46.348
	l3.863-0.014L82.047,32.523z M78.242,76.946H31.897V46.038h46.348v30.908H78.242z"/>
<path d="M41.486,37.515c2.11,0,3.809-1.694,3.809-3.798v-3.978c0-2.11-1.698-3.807-3.809-3.807c-2.101,0-3.802,1.697-3.802,3.807
	v3.979C37.685,35.821,39.386,37.515,41.486,37.515"/>
<path fill="#E42920" d="M49.869,73.294L49.869,73.294c-0.284,0-0.699-0.063-1.119-0.192c-0.436-0.278-0.723-0.497-0.917-0.699
	l-7.014-7.006c-0.628-0.485-0.852-1.278-0.852-2.192c0-0.764,0.224-1.556,0.852-2.125c0.574-0.633,1.337-0.83,2.26-0.83
	c0.79,0,1.491,0.197,2.124,0.83l4.666,4.82l15.902-15.836c0.568-0.569,1.269-0.854,2.19-0.854c0.767,0,1.554,0.285,2.122,0.854
	c0.645,0.497,0.852,1.419,0.852,2.185c0,0.793-0.207,1.563-0.852,2.061L52.127,72.403c-0.349,0.202-0.638,0.421-0.984,0.699
	C50.724,73.233,50.284,73.294,49.869,73.294L49.869,73.294z"/>
<rect x="127.403" y="54.386" fill="#E42920" width="52.911" height="52.91"/>
</svg>
