<?xml version="1.0" encoding="utf-8"?>
<!-- Generator: Adobe Illustrator 15.0.0, SVG Export Plug-In . SVG Version: 6.00 Build 0)  -->
<!DOCTYPE svg PUBLIC "-//W3C//DTD SVG 1.1//EN" "http://www.w3.org/Graphics/SVG/1.1/DTD/svg11.dtd">
<svg version="1.1" id="Capa_1" xmlns="http://www.w3.org/2000/svg" xmlns:xlink="http://www.w3.org/1999/xlink" x="0px" y="0px"
	 width="158.319px" height="63.768px" viewBox="0 0 158.319 63.768" enable-background="new 0 0 158.319 63.768"
	 xml:space="preserve">
<g>
	<path fill-rule="evenodd" clip-rule="evenodd" d="M124.951,37.244L124.951,37.244c-0.35,0-0.861-0.075-1.377-0.235
		c-0.536-0.344-0.89-0.612-1.128-0.86l-8.63-8.621c-0.772-0.599-1.047-1.573-1.047-2.699c0-0.938,0.274-1.914,1.047-2.614
		c0.707-0.778,1.645-1.021,2.781-1.021c0.972,0,1.835,0.242,2.614,1.021l5.741,5.932L144.518,8.66c0.7-0.7,1.561-1.051,2.695-1.051
		c0.942,0,1.911,0.351,2.611,1.051c0.792,0.611,1.047,1.747,1.047,2.689c0,0.975-0.255,1.924-1.047,2.535l-22.096,22.264
		c-0.429,0.248-0.785,0.517-1.211,0.86C126.001,37.168,125.461,37.244,124.951,37.244L124.951,37.244z"/>
	<g>
		<path fill="#E42920" d="M23.736,38.356v-3.792h2.505l-1.844-5.185h-7.933l-2.192,6.367v2.609H7.104v-3.792h3.306l6.854-19.729
			l0.766-2.332h8.594v3.793h-2.505l6.437,18.268h3.236v3.792H23.736z M20.466,17.792l-2.679,7.794h5.324L20.466,17.792z"/>
		<path fill="#E42920" d="M49.519,38.356l-5.323-11.795h-3.375v11.83h-4.176V16.296h-3.479v-3.793H45.9
			c1.044,0,2.012,0.151,2.906,0.453c0.893,0.302,1.699,0.777,2.418,1.426c1.461,1.3,2.192,2.936,2.192,4.906
			c0,0.882-0.128,1.711-0.383,2.488c-0.256,0.777-0.65,1.479-1.183,2.104c-0.417,0.511-0.917,0.939-1.496,1.288
			c-0.58,0.348-1.218,0.638-1.914,0.869l3.897,8.525h3.41v3.792H49.519z M48.301,17.202c-0.325-0.279-0.713-0.499-1.166-0.661
			c-0.452-0.162-1.003-0.244-1.653-0.244h-4.662v6.472h4.036c0.812,0,1.49-0.081,2.035-0.243s0.992-0.383,1.34-0.661
			c0.325-0.255,0.574-0.574,0.748-0.957s0.261-0.864,0.261-1.444C49.241,18.489,48.928,17.735,48.301,17.202z"/>
		<path fill="#E42920" d="M79.373,38.356v-2.679V20.298l-7.411,18.058h-1.879l-7.307-18.093v14.301h2.818v3.792h-6.681v-2.679
			V16.296h-3.062v-3.793h7.898l7.446,17.989l7.376-17.989h7.933v3.793h-2.958v18.268h2.958v3.792H79.373z"/>
		<path fill="#E42920" d="M104.007,38.356v-3.792h2.505l-1.844-5.185h-7.933l-2.192,6.367v2.609h-7.167v-3.792h3.305l6.855-19.729
			l0.765-2.332h8.594v3.793h-2.505l6.437,18.268h3.236v3.792H104.007z M100.041,11.947h-3.932l4.941-7.62h4.836L100.041,11.947z
			 M100.736,17.792l-2.679,7.794h5.324L100.736,17.792z"/>
		<path d="M20.417,45.708v-2.202h-3.266v15.688h-5.271v-2.697h2.301v-12.99h-3.266v4.182H8.194v-6.879H23.14v4.899H20.417z"/>
		<path d="M39.47,43.506v9.873c0,0.94-0.14,1.785-0.42,2.536c-0.281,0.751-0.718,1.406-1.312,1.967
			c-0.594,0.528-1.295,0.92-2.103,1.176c-0.809,0.255-1.708,0.383-2.697,0.383s-1.889-0.123-2.697-0.371
			c-0.808-0.247-1.509-0.643-2.103-1.188c-0.61-0.544-1.056-1.195-1.336-1.955c-0.28-0.758-0.42-1.607-0.42-2.548v-9.873h-2.153
			v-2.697h7.25v2.697H29.35v10.021c0,0.561,0.074,1.026,0.223,1.397s0.363,0.673,0.644,0.903c0.28,0.265,0.643,0.467,1.088,0.606
			c0.445,0.141,0.981,0.21,1.608,0.21c0.676,0,1.233-0.069,1.67-0.21c0.437-0.14,0.795-0.325,1.076-0.557
			c0.264-0.231,0.47-0.528,0.619-0.891c0.148-0.363,0.223-0.833,0.223-1.411V42.714v-1.905h5.122v2.697H39.47z"/>
		<path d="M51.124,59.194v-1.905V43.506h-2.152v-2.697h15.02v5.666h-2.697v-2.969h-7.201v4.948h6.978v2.697h-6.978v5.345h7.993h1.93
			v2.697H51.124z"/>
		<path d="M81.138,43.506l-5.815,15.86h-2.251l-6.013-15.86h-2.425v-2.697h4.577l0.544,1.633l4.528,11.878l3.984-10.813h-1.708
			v-2.697h7.002v2.697H81.138z"/>
		<path d="M87.077,59.194v-1.905V43.506h-2.152v-2.697h15.02v5.666h-2.697v-2.969h-7.201v4.948h6.978v2.697h-6.978v5.345h7.993h1.93
			v2.697H87.077z"/>
		<path d="M117.809,43.506v15.91h-2.524l-8.908-13.634v10.714h2.375v2.697h-5.122v-1.905V43.506h-2.252v-2.697h5.196
			c0.924,1.484,1.798,2.858,2.623,4.12c0.825,1.262,1.641,2.503,2.449,3.724c1.139,1.683,2.277,3.415,3.415,5.196V42.714v-1.905
			h4.924v2.697H117.809z"/>
		<path d="M134.04,45.708v-2.202h-3.266v15.688h-5.271v-2.697h2.301v-12.99h-3.266v4.182h-2.722v-6.879h14.945v4.899H134.04z"/>
		<path d="M152.697,56.745c-1.749,1.798-3.959,2.696-6.631,2.696s-4.883-0.898-6.631-2.696c-1.749-1.798-2.623-4.05-2.623-6.756
			c0-2.705,0.874-4.956,2.623-6.755c1.748-1.798,3.959-2.697,6.631-2.697s4.883,0.899,6.631,2.697
			c1.748,1.799,2.623,4.05,2.623,6.755C155.319,52.695,154.445,54.947,152.697,56.745z M150.569,45.189
			c-1.171-1.237-2.672-1.855-4.503-1.855c-1.815,0-3.316,0.627-4.503,1.88c-1.188,1.237-1.782,2.829-1.782,4.775
			c0,1.947,0.594,3.539,1.782,4.776c1.188,1.254,2.688,1.88,4.503,1.88c1.831,0,3.332-0.618,4.503-1.855
			c1.188-1.254,1.781-2.854,1.781-4.801C152.35,48.059,151.756,46.459,150.569,45.189z"/>
	</g>
</g>
</svg>
