<?xml version="1.0" encoding="utf-8"?>
<!-- Generator: Adobe Illustrator 15.0.0, SVG Export Plug-In . SVG Version: 6.00 Build 0)  -->
<!DOCTYPE svg PUBLIC "-//W3C//DTD SVG 1.1//EN" "http://www.w3.org/Graphics/SVG/1.1/DTD/svg11.dtd">
<svg version="1.1"
	 id="Capa_1" xmlns:dc="http://purl.org/dc/elements/1.1/" xmlns:cc="http://creativecommons.org/ns#" xmlns:rdf="http://www.w3.org/1999/02/22-rdf-syntax-ns#" xmlns:svg="http://www.w3.org/2000/svg" xmlns:inkscape="http://www.inkscape.org/namespaces/inkscape" xmlns:sodipodi="http://sodipodi.sourceforge.net/DTD/sodipodi-0.dtd" inkscape:export-filename="/var/www/html/armaTuEvento/images/logo_completo.png" sodipodi:docname="logo_completo.svg" inkscape:version="0.92.1 r15371" inkscape:export-ydpi="114" inkscape:export-xdpi="114"
	 xmlns="http://www.w3.org/2000/svg" xmlns:xlink="http://www.w3.org/1999/xlink" x="0px" y="0px" width="185.725px"
	 height="50.926px" viewBox="0 0 185.725 50.926" enable-background="new 0 0 185.725 50.926" xml:space="preserve">
<sodipodi:namedview  id="namedview3894" inkscape:cy="23.596671" inkscape:cx="87.548809" inkscape:zoom="2.6907699" fit-margin-left="0" guidetolerance="10" fit-margin-top="0" showgrid="false" pagecolor="#ffffff" objecttolerance="10" gridtolerance="10" borderopacity="1" bordercolor="#666666" inkscape:window-maximized="0" inkscape:pagecheckerboard="false" inkscape:current-layer="Capa_1" inkscape:window-y="24" inkscape:window-x="0" fit-margin-bottom="0" fit-margin-right="0" inkscape:window-height="607" inkscape:window-width="1114" inkscape:pageshadow="2" inkscape:pageopacity="0">
	</sodipodi:namedview>
<g id="g3891">
	<path id="path3863" inkscape:connector-curvature="0" d="M158.392,29.625L158.392,29.625c-0.315,0-0.775-0.067-1.239-0.211
		c-0.482-0.311-0.802-0.551-1.016-0.774l-7.767-7.759c-0.695-0.539-0.942-1.416-0.942-2.429c0-0.844,0.246-1.723,0.942-2.353
		c0.636-0.7,1.48-0.919,2.503-0.919c0.874,0,1.651,0.218,2.353,0.919l5.167,5.339L176.003,3.9c0.63-0.63,1.404-0.946,2.425-0.946
		c0.848,0,1.72,0.316,2.351,0.946c0.712,0.55,0.941,1.572,0.941,2.42c0,0.877-0.229,1.731-0.941,2.282l-19.887,20.037
		c-0.386,0.224-0.707,0.465-1.09,0.774C159.337,29.557,158.851,29.625,158.392,29.625z"/>
	<g id="g3889">
		<path id="path3865" inkscape:connector-curvature="0" fill="#FFFFFF" d="M67.299,30.626v-3.413h2.254l-1.659-4.666h-7.14
			l-1.973,5.73v2.348H52.33v-3.412h2.976l6.168-17.757l0.689-2.099h7.734v3.414h-2.254l5.793,16.441h2.912v3.412L67.299,30.626
			L67.299,30.626z M64.355,12.119l-2.411,7.015h4.792L64.355,12.119z"/>
		<path id="path3867" inkscape:connector-curvature="0" fill="#FFFFFF" d="M90.503,30.626l-4.79-10.615h-3.038v10.647h-3.758V10.772
			h-3.131V7.358h11.46c0.939,0,1.811,0.136,2.615,0.408c0.804,0.272,1.529,0.699,2.177,1.283c1.314,1.17,1.973,2.643,1.973,4.416
			c0,0.794-0.115,1.54-0.345,2.239c-0.23,0.699-0.585,1.331-1.064,1.894c-0.376,0.46-0.825,0.845-1.347,1.159
			c-0.522,0.313-1.096,0.574-1.723,0.782l3.508,7.672h3.068v3.414L90.503,30.626L90.503,30.626z M89.407,11.587
			c-0.293-0.251-0.642-0.449-1.05-0.595c-0.406-0.146-0.902-0.22-1.487-0.22h-4.196v5.825h3.633c0.73,0,1.341-0.073,1.832-0.219
			c0.49-0.146,0.893-0.345,1.205-0.595c0.293-0.229,0.517-0.517,0.674-0.861c0.156-0.345,0.234-0.777,0.234-1.3
			C90.253,12.746,89.971,12.067,89.407,11.587z"/>
		<path id="path3869" inkscape:connector-curvature="0" fill="#FFFFFF" d="M117.372,30.626v-2.411V14.374l-6.67,16.252h-1.691
			l-6.576-16.284v12.871h2.536v3.413h-6.013v-2.411V10.772h-2.756V7.358h7.108l6.701,16.19l6.639-16.19h7.14v3.414h-2.662v16.441
			h2.662v3.413H117.372z"/>
		<path id="path3871" inkscape:connector-curvature="0" fill="#FFFFFF" d="M139.543,30.626v-3.413h2.254l-1.659-4.666h-7.14
			l-1.973,5.73v2.348h-6.451v-3.412h2.975l6.17-17.757l0.688-2.099h7.734v3.414h-2.254l5.793,16.441h2.912v3.412L139.543,30.626
			L139.543,30.626z M135.973,6.858h-3.539L136.881,0h4.353L135.973,6.858z M136.598,12.119l-2.411,7.015h4.792L136.598,12.119z"/>
		<path id="path3873" inkscape:connector-curvature="0" d="M64.311,37.243v-1.981h-2.939v14.119h-4.744v-2.428h2.071V35.262H55.76
			v3.764H53.31v-6.19h13.452v4.409L64.311,37.243L64.311,37.243z"/>
		<path id="path3875" inkscape:connector-curvature="0" d="M81.459,35.262v8.885c0,0.846-0.126,1.607-0.378,2.283
			c-0.253,0.676-0.646,1.266-1.181,1.77c-0.534,0.476-1.165,0.828-1.893,1.059c-0.729,0.229-1.537,0.345-2.428,0.345
			c-0.89,0-1.699-0.11-2.427-0.334c-0.728-0.222-1.358-0.579-1.893-1.069c-0.549-0.489-0.95-1.075-1.203-1.76
			c-0.252-0.682-0.378-1.445-0.378-2.293v-8.885h-1.938v-2.428h6.525v2.428h-1.916v9.019c0,0.505,0.066,0.923,0.2,1.257
			c0.135,0.334,0.327,0.605,0.58,0.813c0.252,0.238,0.578,0.421,0.979,0.546c0.401,0.127,0.884,0.188,1.447,0.188
			c0.608,0,1.11-0.062,1.503-0.188c0.394-0.126,0.716-0.292,0.969-0.501c0.237-0.209,0.423-0.476,0.558-0.803
			c0.133-0.326,0.2-0.749,0.2-1.27v-9.773v-1.715h4.61v2.428H81.459z"/>
		<path id="path3877" inkscape:connector-curvature="0" d="M91.948,49.381v-1.715V35.262H90.01v-2.428h13.519v5.1h-2.428v-2.672
			h-6.48v4.453h6.28v2.427h-6.28v4.811h7.193h1.737v2.427H91.948V49.381z"/>
		<path id="path3879" inkscape:connector-curvature="0" d="M118.961,35.262l-5.234,14.273h-2.025l-5.412-14.273h-2.183v-2.428h4.12
			l0.489,1.47l4.075,10.69l3.586-9.732h-1.537v-2.427h6.302v2.427H118.961L118.961,35.262z"/>
		<path id="path3881" inkscape:connector-curvature="0" d="M124.305,49.381v-1.715V35.262h-1.937v-2.428h13.518v5.1h-2.427v-2.672
			h-6.481v4.453h6.28v2.427h-6.28v4.811h7.193h1.737v2.427h-11.604V49.381z"/>
		<path id="path3883" inkscape:connector-curvature="0" d="M151.965,35.262V49.58h-2.272l-8.017-12.271v9.643h2.138v2.427h-4.61
			v-1.714V35.262h-2.026v-2.428h4.676c0.832,1.336,1.618,2.572,2.361,3.708c0.742,1.136,1.477,2.253,2.204,3.352
			c1.024,1.515,2.049,3.073,3.073,4.677V34.549v-1.715h4.432v2.428H151.965z"/>
		<path id="path3885" inkscape:connector-curvature="0" d="M166.572,37.243v-1.981h-2.939v14.119h-4.744v-2.428h2.071V35.262h-2.939
			v3.764h-2.45v-6.19h13.451v4.409L166.572,37.243L166.572,37.243z"/>
		<path id="path3887" inkscape:connector-curvature="0" d="M183.363,47.176c-1.574,1.619-3.563,2.427-5.968,2.427
			c-2.404,0-4.395-0.808-5.968-2.427c-1.574-1.617-2.36-3.645-2.36-6.08c0-2.435,0.786-4.461,2.36-6.08
			c1.573-1.617,3.563-2.427,5.968-2.427c2.405,0,4.395,0.81,5.968,2.427c1.573,1.619,2.361,3.646,2.361,6.08
			C185.723,43.531,184.936,45.559,183.363,47.176z M181.448,36.775c-1.054-1.113-2.404-1.669-4.053-1.669
			c-1.634,0-2.984,0.563-4.053,1.692c-1.069,1.113-1.604,2.545-1.604,4.297s0.534,3.186,1.604,4.299
			c1.069,1.129,2.419,1.691,4.053,1.691c1.648,0,2.999-0.556,4.053-1.67c1.069-1.128,1.604-2.568,1.604-4.32
			C183.052,39.359,182.516,37.919,181.448,36.775z"/>
	</g>
</g>
<g>
	<rect x="2.293" y="21.574" fill="#FFFFFF" width="37.925" height="27.829"/>
	<path fill="#FFFFFF" d="M33.143,15.498c1.722,0,3.116-1.387,3.116-3.109V9.133c0-1.727-1.392-3.116-3.116-3.116
		c-1.72,0-3.113,1.389-3.113,3.116v3.257C30.035,14.111,31.424,15.498,33.143,15.498"/>
	<path d="M44.212,11.412h-6.272v1.579c0,2.617-2.127,4.746-4.742,4.746c-2.62,0-4.743-2.129-4.743-4.746v-1.579H15.81v1.579
		c0,2.617-2.13,4.746-4.743,4.746c-2.622,0-4.742-2.129-4.742-4.746v-1.579L0,11.328v39.596l3.164,0.002h37.937l3.162-0.012
		L44.212,11.412z M41.097,47.773H3.163V22.475H41.1v25.299H41.097z"/>
	<path fill="#FFFFFF" d="M11.012,15.498c1.727,0,3.118-1.387,3.118-3.109V9.133c0-1.727-1.39-3.116-3.118-3.116
		c-1.72,0-3.112,1.389-3.112,3.116v3.257C7.901,14.111,9.293,15.498,11.012,15.498"/>
	<path fill="#E42920" d="M17.874,44.785L17.874,44.785c-0.233,0-0.572-0.053-0.916-0.158c-0.357-0.227-0.592-0.406-0.75-0.572
		l-5.741-5.734c-0.514-0.396-0.698-1.047-0.698-1.795c0-0.625,0.184-1.273,0.698-1.738c0.47-0.518,1.095-0.68,1.85-0.68
		c0.647,0,1.22,0.162,1.739,0.68l3.819,3.945L30.89,25.77c0.465-0.465,1.039-0.699,1.792-0.699c0.628,0,1.272,0.234,1.737,0.699
		c0.528,0.406,0.698,1.162,0.698,1.789c0,0.648-0.169,1.279-0.698,1.688L19.722,44.055c-0.286,0.166-0.522,0.346-0.806,0.572
		C18.573,44.734,18.214,44.785,17.874,44.785L17.874,44.785z"/>
</g>
</svg>
